<svg width="24" height="24" viewBox="0 0 24 24" fill="none" xmlns="http://www.w3.org/2000/svg">
<circle cx="12" cy="12" r="12" fill="#65A046"/>
<path d="M16.0771 16.8583C15.0087 16.8583 13.9531 16.6193 12.9104 16.1414C11.8677 15.6636 10.919 14.9858 10.0643 14.1083C9.20955 13.2308 8.54938 12.2571 8.08374 11.1873C7.6181 10.1175 7.38511 9.03421 7.38477 7.93739C7.38477 7.77949 7.43605 7.64792 7.53861 7.54266C7.64118 7.4374 7.76938 7.38477 7.92323 7.38477H10.0002C10.1198 7.38477 10.2266 7.42652 10.3207 7.51003C10.4147 7.59353 10.4702 7.69213 10.4873 7.80581L10.8207 9.64788C10.8378 9.78823 10.8335 9.90665 10.8078 10.0031C10.7822 10.0996 10.7352 10.183 10.6668 10.2531L9.42323 11.5426C9.59417 11.8671 9.79707 12.1806 10.0319 12.4831C10.2668 12.7855 10.5254 13.0773 10.8078 13.3583C11.0728 13.6303 11.3506 13.8825 11.6412 14.1152C11.9318 14.3478 12.2395 14.5604 12.5643 14.753L13.7694 13.5162C13.8463 13.4373 13.9468 13.3782 14.0709 13.3389C14.195 13.2996 14.3167 13.2885 14.436 13.3057L16.2053 13.6741C16.3249 13.7092 16.4232 13.7729 16.5001 13.8652C16.5771 13.9574 16.6155 14.0604 16.6155 14.1741V16.3056C16.6155 16.4635 16.5643 16.5951 16.4617 16.7004C16.3591 16.8056 16.2309 16.8583 16.0771 16.8583Z" fill="white"/>
</svg>
