<svg width="24" height="24" viewBox="0 0 24 24" fill="none" xmlns="http://www.w3.org/2000/svg">
<circle cx="12" cy="12" r="12" fill="white"/>
<path d="M16.0771 16.8581C15.0087 16.8581 13.9531 16.6192 12.9104 16.1413C11.8677 15.6634 10.919 14.9857 10.0643 14.1082C9.20955 13.2307 8.54938 12.257 8.08374 11.1872C7.6181 10.1174 7.38511 9.03409 7.38477 7.93726C7.38477 7.77937 7.43605 7.6478 7.53861 7.54254C7.64118 7.43727 7.76938 7.38464 7.92323 7.38464H10.0002C10.1198 7.38464 10.2266 7.4264 10.3207 7.5099C10.4147 7.59341 10.4702 7.69201 10.4873 7.80569L10.8207 9.64776C10.8378 9.78811 10.8335 9.90652 10.8078 10.003C10.7822 10.0995 10.7352 10.1828 10.6668 10.253L9.42323 11.5425C9.59417 11.867 9.79707 12.1805 10.0319 12.483C10.2668 12.7854 10.5254 13.0772 10.8078 13.3582C11.0728 13.6301 11.3506 13.8824 11.6412 14.115C11.9318 14.3477 12.2395 14.5603 12.5643 14.7529L13.7694 13.5161C13.8463 13.4372 13.9468 13.378 14.0709 13.3387C14.195 13.2994 14.3167 13.2884 14.436 13.3056L16.2053 13.674C16.3249 13.7091 16.4232 13.7728 16.5001 13.865C16.5771 13.9573 16.6155 14.0603 16.6155 14.174V16.3055C16.6155 16.4634 16.5643 16.595 16.4617 16.7003C16.3591 16.8055 16.2309 16.8581 16.0771 16.8581Z" fill="#65A046"/>
</svg>
