<svg width="50" height="50" viewBox="0 0 50 50" fill="none" xmlns="http://www.w3.org/2000/svg">
<path d="M43.1528 13.8329C42.8645 13.4215 42.4813 13.0855 42.0357 12.8535C41.5901 12.6215 41.0951 12.5002 40.5927 12.5H32.8125V7.8125C32.8116 6.98398 32.482 6.18967 31.8962 5.60382C31.3103 5.01797 30.516 4.68843 29.6875 4.6875H4.6875C3.85898 4.68843 3.06467 5.01797 2.47882 5.60382C1.89297 6.18967 1.56343 6.98398 1.5625 7.8125V39.8438H6.74629C7.02083 41.3772 7.82587 42.7653 9.02054 43.765C10.2152 44.7648 11.7234 45.3126 13.2812 45.3126C14.8391 45.3126 16.3473 44.7648 17.542 43.765C18.7366 42.7653 19.5417 41.3772 19.8162 39.8438H30.1838C30.4583 41.3772 31.2634 42.7653 32.458 43.765C33.6527 44.7648 35.1609 45.3126 36.7188 45.3126C38.2766 45.3126 39.7848 44.7648 40.9795 43.765C42.1741 42.7653 42.9792 41.3772 43.2537 39.8438H48.4375V22.1213C48.4381 21.6403 48.2902 21.1709 48.0139 20.7772L43.1528 13.8329ZM4.68555 7.8125H29.6875V25H4.6875L4.68555 7.8125ZM13.2812 42.1875C12.5859 42.1875 11.9062 41.9813 11.3281 41.595C10.7499 41.2087 10.2993 40.6596 10.0332 40.0172C9.76715 39.3749 9.69753 38.668 9.83318 37.986C9.96883 37.304 10.3037 36.6776 10.7953 36.186C11.287 35.6943 11.9134 35.3595 12.5954 35.2238C13.2773 35.0882 13.9842 35.1578 14.6266 35.4239C15.269 35.6899 15.8181 36.1406 16.2044 36.7187C16.5907 37.2968 16.7969 37.9766 16.7969 38.6719C16.7958 39.604 16.4251 40.4976 15.766 41.1567C15.1069 41.8157 14.2133 42.1865 13.2812 42.1875ZM36.7188 42.1875C36.0234 42.1875 35.3437 41.9813 34.7656 41.595C34.1874 41.2087 33.7368 40.6596 33.4707 40.0172C33.2046 39.3749 33.135 38.668 33.2707 37.986C33.4063 37.304 33.7412 36.6776 34.2328 36.186C34.7245 35.6943 35.3509 35.3595 36.0329 35.2238C36.7149 35.0882 37.4217 35.1578 38.0641 35.4239C38.7065 35.6899 39.2556 36.1406 39.6419 36.7187C40.0282 37.2968 40.2344 37.9766 40.2344 38.6719C40.2333 39.604 39.8626 40.4976 39.2035 41.1567C38.5444 41.8157 37.6508 42.1865 36.7188 42.1875ZM45.3125 36.7188H43.0658C42.6482 35.3613 41.8065 34.1736 40.6641 33.3298C39.5217 32.486 38.1389 32.0307 36.7188 32.0307C35.2986 32.0307 33.9158 32.486 32.7734 33.3298C31.631 34.1736 30.7893 35.3613 30.3717 36.7188H19.6283C19.2107 35.3613 18.369 34.1736 17.2266 33.3298C16.0842 32.486 14.7014 32.0307 13.2812 32.0307C11.8611 32.0307 10.4783 32.486 9.3359 33.3298C8.19354 34.1736 7.35177 35.3613 6.93418 36.7188H4.6875V28.125H45.3125V36.7188ZM45.3125 25H32.8125V15.625H40.5927L45.3125 22.3676V25Z" fill="#68963B"/>
</svg>
