<svg width="50" height="50" viewBox="0 0 50 50" fill="none" xmlns="http://www.w3.org/2000/svg">
<g clip-path="url(#clip0_396_269)">
<path d="M26.3885 41.6666H5.55512C4.81841 41.6666 4.11187 41.374 3.59094 40.8531C3.07 40.3321 2.77734 39.6256 2.77734 38.8889V11.1111C2.77734 10.3744 3.07 9.66784 3.59094 9.14691C4.11187 8.62597 4.81841 8.33331 5.55512 8.33331H44.444C45.1807 8.33331 45.8873 8.62597 46.4082 9.14691C46.9291 9.66784 47.2218 10.3744 47.2218 11.1111V25.5139C45.3715 23.1572 42.68 21.6093 39.7125 21.195C36.7451 20.7808 33.7326 21.5325 31.3076 23.2924C28.8827 25.0522 27.234 27.6832 26.7078 30.6329C26.1816 33.5825 26.8188 36.6213 28.4857 39.1111L27.194 40.6944L26.3885 41.6666ZM9.72179 16.6666V18.8889H33.3329V16.6666H9.72179ZM9.72179 24.4444H24.9996V22.2222H9.72179V24.4444ZM9.72179 34.1666H23.6107V31.9444H9.72179V34.1666Z" fill="#65A046"/>
<path d="M46.9864 32.7639C46.9901 31.2995 46.6303 29.857 45.9391 28.5659C45.2479 27.2748 44.2471 26.1755 43.0263 25.3665C41.8056 24.5576 40.4031 24.0643 38.9448 23.931C37.4864 23.7976 36.0178 24.0284 34.6705 24.6026C33.3233 25.1767 32.1397 26.0763 31.2259 27.2206C30.3121 28.365 29.6966 29.7183 29.4346 31.1591C29.1727 32.5999 29.2726 34.0833 29.7252 35.476C30.1778 36.8687 30.9691 38.1273 32.0281 39.1389L29.3336 42.4306L30.5836 47.4445L35.667 41.25C37.2761 41.7258 38.9884 41.7258 40.5975 41.25L45.6809 47.4445L46.9309 42.4306L44.2364 39.1389C45.1029 38.3181 45.7935 37.3298 46.2662 36.2339C46.739 35.138 46.984 33.9574 46.9864 32.7639ZM32.0697 32.7639C32.0532 31.5601 32.3951 30.3785 33.0519 29.3695C33.7087 28.3605 34.6507 27.5696 35.7582 27.0974C36.8657 26.6252 38.0886 26.4931 39.2714 26.7178C40.4542 26.9425 41.5434 27.5138 42.4006 28.3593C43.2578 29.2047 43.8442 30.2859 44.0852 31.4655C44.3262 32.6451 44.211 33.8697 43.7542 34.9836C43.2973 36.0975 42.5195 37.0504 41.5197 37.721C40.5198 38.3917 39.3431 38.7499 38.1392 38.75C36.544 38.7537 35.0121 38.1265 33.8776 37.005C32.7432 35.8836 32.0983 34.359 32.0836 32.7639H32.0697Z" fill="#65A046"/>
</g>
<defs>
<clipPath id="clip0_396_269">
<rect width="50" height="50" fill="white"/>
</clipPath>
</defs>
</svg>
