<svg width="28" height="28" viewBox="0 0 28 28" fill="none" xmlns="http://www.w3.org/2000/svg">
<path d="M21.8272 4.07751C19.6198 2.97968 16.9167 2.33334 14 2.33334C11.0833 2.33334 8.38133 2.97968 6.17283 4.07751C5.09017 4.61651 4.54883 4.88601 4.025 5.73301C3.50117 6.58001 3.5 7.39901 3.5 9.03934V13.111C3.5 19.7412 8.799 23.4267 11.8685 25.0063C12.7248 25.4462 13.1518 25.6667 14 25.6667C14.8482 25.6667 15.2752 25.4462 16.1315 25.0063C19.1998 23.4267 24.5 19.74 24.5 13.1098V9.03934C24.5 7.39901 24.5 6.58001 23.975 5.73301C23.45 4.88601 22.9098 4.61651 21.8272 4.07751Z" stroke="#65A046" stroke-width="1.5" stroke-linecap="round" stroke-linejoin="round"/>
<path d="M10.5 13.4167C10.5 13.4167 12.1427 13.7107 12.8333 15.75C12.8333 15.75 14.5833 12.25 17.5 11.0833" stroke="#65A046" stroke-width="1.5" stroke-linecap="round" stroke-linejoin="round"/>
</svg>
