<svg width="50" height="50" viewBox="0 0 50 50" fill="none" xmlns="http://www.w3.org/2000/svg">
<path d="M32.2917 4.16675V10.4167M13.5417 4.16675V10.4167M22.9167 4.16675V10.4167M39.5833 25.0001V21.8751C39.5833 15.0001 39.5833 11.5626 37.4479 9.42717C35.3125 7.29175 31.875 7.29175 25 7.29175H20.8333C13.9583 7.29175 10.5208 7.29175 8.38542 9.42717C6.25 11.5626 6.25 15.0001 6.25 21.8751V31.2501C6.25 38.1251 6.25 41.5626 8.38542 43.698C10.5208 45.8334 13.9583 45.8334 20.8333 45.8334H22.9167M14.5833 31.2501H22.9167M14.5833 22.9167H31.25M32.7854 45.1105L29.1667 45.8334L29.8896 42.2147C30.0354 41.4813 30.3979 40.8063 30.9292 40.2772L39.3979 31.8063C39.574 31.63 39.7831 31.49 40.0134 31.3946C40.2436 31.2991 40.4904 31.2499 40.7396 31.2499C40.9888 31.2499 41.2356 31.2991 41.4658 31.3946C41.696 31.49 41.9052 31.63 42.0813 31.8063L43.1938 32.9188C43.3701 33.0949 43.5101 33.3041 43.6055 33.5343C43.701 33.7645 43.7501 34.0113 43.7501 34.2605C43.7501 34.5097 43.701 34.7565 43.6055 34.9867C43.5101 35.2169 43.3701 35.4261 43.1938 35.6022L34.725 44.0709C34.197 44.6036 33.5214 44.9657 32.7854 45.1105Z" stroke="#68963B" stroke-width="3" stroke-linecap="round" stroke-linejoin="round"/>
</svg>
