<svg width="16" height="16" viewBox="0 0 16 16" fill="none" xmlns="http://www.w3.org/2000/svg">
<g clip-path="url(#clip0_220_1248)">
<path d="M0.327621 7.6414C0.327261 8.94101 0.666837 10.21 1.31253 11.3285L0.265869 15.15L4.17674 14.1246C5.25844 14.7134 6.4704 15.022 7.702 15.0221H7.70524C11.771 15.0221 15.0806 11.7137 15.0823 7.64722C15.0831 5.67673 14.3164 3.82382 12.9235 2.42978C11.5307 1.03587 9.67848 0.267806 7.70494 0.266907C3.63872 0.266907 0.32936 3.57513 0.327681 7.6414" fill="url(#paint0_linear_220_1248)"/>
<path d="M0.06415 7.63901C0.0637304 8.98538 0.415476 10.2997 1.0842 11.4583L0 15.4168L4.05111 14.3546C5.16732 14.9632 6.42406 15.2841 7.70286 15.2846H7.70616C11.9178 15.2846 15.3462 11.8571 15.348 7.64513C15.3488 5.60384 14.5545 3.68431 13.1118 2.24034C11.6689 0.79654 9.75039 0.000839346 7.70616 0C3.49384 0 0.0658287 3.42693 0.06415 7.63901ZM2.47673 11.2588L2.32547 11.0186C1.6896 10.0076 1.35399 8.83922 1.35447 7.63949C1.35578 4.13852 4.20501 1.2902 7.70856 1.2902C9.40524 1.29091 10.9998 1.95232 12.1991 3.15235C13.3983 4.35249 14.0582 5.94785 14.0578 7.64465C14.0562 11.1456 11.207 13.9943 7.70616 13.9943H7.70364C6.56375 13.9937 5.4458 13.6876 4.47084 13.1091L4.23882 12.9715L1.83481 13.6018L2.47673 11.2588Z" fill="url(#paint1_linear_220_1248)"/>
<path d="M5.79606 4.44539C5.65301 4.12746 5.50247 4.12104 5.36644 4.11547C5.25504 4.11067 5.1277 4.11103 5.00048 4.11103C4.87314 4.11103 4.66624 4.15893 4.49136 4.34988C4.31629 4.54101 3.823 5.00289 3.823 5.9423C3.823 6.88171 4.50725 7.78964 4.60263 7.91717C4.69814 8.04445 5.92358 10.0339 7.86439 10.7993C9.47737 11.4353 9.80562 11.3088 10.1557 11.2769C10.5058 11.2452 11.2854 10.8152 11.4445 10.3693C11.6037 9.9235 11.6037 9.54136 11.556 9.4615C11.5082 9.38194 11.3809 9.33416 11.1899 9.23872C10.999 9.14327 10.0602 8.68127 9.88518 8.61754C9.71011 8.55387 9.58283 8.52209 9.45549 8.71329C9.32815 8.90418 8.96249 9.33416 8.85104 9.4615C8.73971 9.58914 8.62825 9.60503 8.43736 9.50953C8.24629 9.41372 7.63135 9.21234 6.90178 8.5619C6.33414 8.05578 5.95092 7.43076 5.83953 7.23957C5.72813 7.04868 5.8276 6.9452 5.92334 6.85006C6.00914 6.7645 6.11435 6.62709 6.20992 6.51564C6.30512 6.40412 6.3369 6.32457 6.40057 6.19722C6.4643 6.06976 6.43241 5.95825 6.38474 5.86275C6.3369 5.76724 5.96585 4.82291 5.79606 4.44539Z" fill="white"/>
</g>
<defs>
<linearGradient id="paint0_linear_220_1248" x1="7.67409" y1="15.15" x2="7.67409" y2="0.266907" gradientUnits="userSpaceOnUse">
<stop stop-color="#1FAF38"/>
<stop offset="1" stop-color="#60D669"/>
</linearGradient>
<linearGradient id="paint1_linear_220_1248" x1="7.67402" y1="15.4168" x2="7.67402" y2="0" gradientUnits="userSpaceOnUse">
<stop stop-color="#F9F9F9"/>
<stop offset="1" stop-color="white"/>
</linearGradient>
<clipPath id="clip0_220_1248">
<rect width="15.348" height="15.468" fill="white"/>
</clipPath>
</defs>
</svg>
