<svg width="50" height="50" viewBox="0 0 50 50" fill="none" xmlns="http://www.w3.org/2000/svg">
<path d="M29.1667 45.8333H20.8334C12.9772 45.8333 9.048 45.8332 6.60841 43.3916C4.16883 40.9499 4.16675 37.0228 4.16675 29.1666V24.9999C4.16675 17.1437 4.16675 13.2145 6.60841 10.7749C9.05008 8.33534 12.9772 8.33325 20.8334 8.33325H29.1667C37.023 8.33325 40.9522 8.33325 43.3917 10.7749C45.8313 13.2166 45.8334 17.1437 45.8334 24.9999V29.1666C45.8334 37.0228 45.8334 40.952 43.3917 43.3916C42.0313 44.7541 40.2084 45.3562 37.5001 45.6208M14.5834 8.33325V5.20825M35.4167 8.33325V5.20825M44.7917 18.7499H22.3959M4.16675 18.7499H12.2397" stroke="#68963B" stroke-width="3.125" stroke-linecap="round"/>
<path d="M37.5 35.4167C37.5 35.9692 37.2805 36.4991 36.8898 36.8898C36.4991 37.2805 35.9692 37.5 35.4167 37.5C34.8641 37.5 34.3342 37.2805 33.9435 36.8898C33.5528 36.4991 33.3333 35.9692 33.3333 35.4167C33.3333 34.8641 33.5528 34.3342 33.9435 33.9435C34.3342 33.5528 34.8641 33.3333 35.4167 33.3333C35.9692 33.3333 36.4991 33.5528 36.8898 33.9435C37.2805 34.3342 37.5 34.8641 37.5 35.4167ZM37.5 27.0833C37.5 27.6359 37.2805 28.1658 36.8898 28.5565C36.4991 28.9472 35.9692 29.1667 35.4167 29.1667C34.8641 29.1667 34.3342 28.9472 33.9435 28.5565C33.5528 28.1658 33.3333 27.6359 33.3333 27.0833C33.3333 26.5308 33.5528 26.0009 33.9435 25.6102C34.3342 25.2195 34.8641 25 35.4167 25C35.9692 25 36.4991 25.2195 36.8898 25.6102C37.2805 26.0009 37.5 26.5308 37.5 27.0833ZM27.0833 35.4167C27.0833 35.9692 26.8638 36.4991 26.4731 36.8898C26.0824 37.2805 25.5525 37.5 25 37.5C24.4475 37.5 23.9176 37.2805 23.5269 36.8898C23.1362 36.4991 22.9167 35.9692 22.9167 35.4167C22.9167 34.8641 23.1362 34.3342 23.5269 33.9435C23.9176 33.5528 24.4475 33.3333 25 33.3333C25.5525 33.3333 26.0824 33.5528 26.4731 33.9435C26.8638 34.3342 27.0833 34.8641 27.0833 35.4167ZM27.0833 27.0833C27.0833 27.6359 26.8638 28.1658 26.4731 28.5565C26.0824 28.9472 25.5525 29.1667 25 29.1667C24.4475 29.1667 23.9176 28.9472 23.5269 28.5565C23.1362 28.1658 22.9167 27.6359 22.9167 27.0833C22.9167 26.5308 23.1362 26.0009 23.5269 25.6102C23.9176 25.2195 24.4475 25 25 25C25.5525 25 26.0824 25.2195 26.4731 25.6102C26.8638 26.0009 27.0833 26.5308 27.0833 27.0833ZM16.6667 35.4167C16.6667 35.9692 16.4472 36.4991 16.0565 36.8898C15.6658 37.2805 15.1359 37.5 14.5833 37.5C14.0308 37.5 13.5009 37.2805 13.1102 36.8898C12.7195 36.4991 12.5 35.9692 12.5 35.4167C12.5 34.8641 12.7195 34.3342 13.1102 33.9435C13.5009 33.5528 14.0308 33.3333 14.5833 33.3333C15.1359 33.3333 15.6658 33.5528 16.0565 33.9435C16.4472 34.3342 16.6667 34.8641 16.6667 35.4167ZM16.6667 27.0833C16.6667 27.6359 16.4472 28.1658 16.0565 28.5565C15.6658 28.9472 15.1359 29.1667 14.5833 29.1667C14.0308 29.1667 13.5009 28.9472 13.1102 28.5565C12.7195 28.1658 12.5 27.6359 12.5 27.0833C12.5 26.5308 12.7195 26.0009 13.1102 25.6102C13.5009 25.2195 14.0308 25 14.5833 25C15.1359 25 15.6658 25.2195 16.0565 25.6102C16.4472 26.0009 16.6667 26.5308 16.6667 27.0833Z" fill="#68963B"/>
</svg>
