<svg width="50" height="50" viewBox="0 0 50 50" fill="none" xmlns="http://www.w3.org/2000/svg">
<path d="M24.9999 35.4167L20.8333 39.5834L24.9999 43.7501" stroke="#68963B" stroke-width="4.16667" stroke-linecap="round" stroke-linejoin="round"/>
<path d="M20.8333 39.5834H39.5833C40.2471 39.5492 40.893 39.3567 41.4672 39.022C42.0414 38.6872 42.5272 38.22 42.884 37.6593C43.2409 37.0985 43.4584 36.4606 43.5184 35.7987C43.5785 35.1367 43.4793 34.47 43.2291 33.8543L42.0833 31.7709M17.7833 22.9168L16.2583 17.2251L10.5667 18.7501" stroke="#68963B" stroke-width="4.16667" stroke-linecap="round" stroke-linejoin="round"/>
<path d="M16.2583 17.2251L6.88326 33.4626C6.58127 34.0544 6.42518 34.7099 6.42802 35.3743C6.43086 36.0387 6.59254 36.6928 6.89958 37.282C7.20663 37.8712 7.65012 38.3785 8.19307 38.7614C8.73602 39.1444 9.36268 39.3919 10.0208 39.4834L12.3978 39.5334M32.2166 22.9168L37.9083 24.4418L39.4333 18.7501" stroke="#68963B" stroke-width="4.16667" stroke-linecap="round" stroke-linejoin="round"/>
<path d="M37.9084 24.4418L28.5334 8.20428C28.1717 7.64686 27.682 7.18401 27.1051 6.85436C26.5282 6.52471 25.8808 6.33781 25.2169 6.30927C24.5531 6.28072 23.892 6.41136 23.2889 6.69027C22.6858 6.96919 22.1582 7.38829 21.75 7.91261L20.5188 9.94594" stroke="#68963B" stroke-width="4.16667" stroke-linecap="round" stroke-linejoin="round"/>
</svg>
