<svg width="50" height="50" viewBox="0 0 50 50" fill="none" xmlns="http://www.w3.org/2000/svg">
<path d="M3.48535 27.0792L4.00618 24.9959H13.3395L12.8187 27.0792H3.48535ZM11.9395 38.0604C10.9242 37.0479 10.4166 35.8195 10.4166 34.375H5.77077L6.81243 30.2042H15.2687L17.0624 22.9209H21.5187L23.602 14.5875H11.0979L11.7312 12.2959C11.859 11.75 12.1298 11.3007 12.5437 10.9479C12.9534 10.5938 13.4485 10.4167 14.0291 10.4167H37.0978L35.4103 17.7084H39.7416L45.3916 25.2417L43.5874 34.375H41.1833C41.1833 35.8181 40.6763 37.0472 39.6624 38.0625C38.6485 39.0778 37.4194 39.5847 35.9749 39.5834C34.5305 39.582 33.302 39.075 32.2895 38.0625C31.277 37.05 30.7701 35.8209 30.7687 34.375H20.8333C20.8333 35.8181 20.3263 37.0472 19.3124 38.0625C18.2985 39.0778 17.0694 39.5847 15.6249 39.5834C14.1805 39.582 12.9513 39.075 11.9374 38.0625M7.6541 19.7938L8.17493 17.7104H19.5916L19.0708 19.7938H7.6541ZM15.6249 37.5C16.4819 37.5 17.2173 37.1938 17.8312 36.5813C18.4437 35.9674 18.7499 35.232 18.7499 34.375C18.7499 33.5181 18.4437 32.7827 17.8312 32.1688C17.2187 31.5549 16.4833 31.2486 15.6249 31.25C14.7666 31.2514 14.0312 31.5577 13.4187 32.1688C12.8062 32.7827 12.4999 33.5181 12.4999 34.375C12.4999 35.232 12.8062 35.9674 13.4187 36.5813C14.0326 37.1938 14.768 37.5 15.6249 37.5ZM35.9791 37.5C36.836 37.5 37.5708 37.1938 38.1833 36.5813C38.7958 35.9674 39.102 35.232 39.102 34.375C39.102 33.5181 38.7958 32.7827 38.1833 32.1688C37.5708 31.5549 36.8353 31.2486 35.977 31.25C35.1187 31.2514 34.384 31.5577 33.7729 32.1688C33.159 32.7827 32.852 33.5181 32.852 34.375C32.852 35.232 33.1583 35.9674 33.7708 36.5813C34.3847 37.1938 35.1208 37.5 35.9791 37.5ZM33.0958 27.6042H42.7895L43.1562 25.75L38.702 19.7917H34.9145L33.0958 27.6042Z" fill="#65A046"/>
</svg>
