<svg width="42" height="42" viewBox="0 0 42 42" fill="none" xmlns="http://www.w3.org/2000/svg">
<path d="M20.8889 0C16.7575 0 12.7188 1.22511 9.28365 3.52041C5.84849 5.81571 3.17111 9.07811 1.59008 12.8951C0.00905076 16.712 -0.404619 20.9121 0.401383 24.9641C1.20739 29.0162 3.19686 32.7382 6.11822 35.6596C9.03959 38.5809 12.7616 40.5704 16.8137 41.3764C20.8657 42.1824 25.0658 41.7687 28.8827 40.1877C32.6997 38.6067 35.9621 35.9293 38.2574 32.4941C40.5527 29.059 41.7778 25.0203 41.7778 20.8889C41.7778 15.3488 39.577 10.0356 35.6596 6.11821C31.7421 2.20079 26.429 0 20.8889 0ZM29.375 33.84H12.7161C12.3089 33.8391 11.9167 33.686 11.6165 33.4107C11.3164 33.1355 11.1301 32.7579 11.0941 32.3523C11.0581 31.9466 11.1751 31.5422 11.4221 31.2183C11.669 30.8945 12.0282 30.6748 12.4289 30.6022C12.6247 30.6022 14.6745 29.9625 14.6745 25.9806V22.1944H11.4106C11.0643 22.1944 10.7322 22.0569 10.4874 21.8121C10.2426 21.5672 10.105 21.2351 10.105 20.8889C10.105 20.5426 10.2426 20.2106 10.4874 19.9657C10.7322 19.7209 11.0643 19.5833 11.4106 19.5833H14.6745V12.8989C14.6484 11.8937 14.8212 10.8932 15.1827 9.95496C15.5443 9.01667 16.0876 8.15903 16.7814 7.43122C17.4753 6.70342 18.306 6.1198 19.2259 5.71383C20.1459 5.30787 21.1369 5.08756 22.1422 5.06556C23.1857 5.07339 24.2155 5.30331 25.1632 5.74002C26.1109 6.17672 26.9547 6.81021 27.6386 7.59833C27.7835 7.75864 27.8954 7.94591 27.9679 8.14945C28.0404 8.35299 28.0721 8.56882 28.0612 8.78461C28.0503 9.00041 27.9969 9.21194 27.9043 9.40713C27.8116 9.60232 27.6814 9.77735 27.5211 9.92222C27.3608 10.0671 27.1735 10.179 26.97 10.2515C26.7665 10.324 26.5506 10.3557 26.3348 10.3448C26.119 10.3339 25.9075 10.2805 25.7123 10.1879C25.5171 10.0952 25.3421 9.96503 25.1972 9.80472C24.827 9.36724 24.3676 9.01394 23.8497 8.76851C23.3318 8.52308 22.7675 8.39119 22.1945 8.38167C21.0389 8.42589 19.9479 8.92596 19.1601 9.7725C18.3722 10.619 17.9517 11.7431 17.9906 12.8989V19.5833H21.9072C22.2535 19.5833 22.5856 19.7209 22.8304 19.9657C23.0752 20.2106 23.2128 20.5426 23.2128 20.8889C23.2128 21.2351 23.0752 21.5672 22.8304 21.8121C22.5856 22.0569 22.2535 22.1944 21.9072 22.1944H17.9906V25.9806C18.0221 27.5717 17.673 29.1473 16.9722 30.5761H29.375C29.8078 30.5761 30.2229 30.748 30.529 31.0541C30.835 31.3601 31.007 31.7752 31.007 32.2081C31.007 32.6409 30.835 33.056 30.529 33.362C30.2229 33.6681 29.8078 33.84 29.375 33.84Z" fill="#65A046"/>
</svg>
