<svg width="20" height="20" viewBox="0 0 20 20" fill="none" xmlns="http://www.w3.org/2000/svg">
<path d="M9.99959 1.19156e-07C11.5377 0.000534114 13.055 0.355883 14.4334 1.03841C15.8119 1.72093 17.0143 2.71224 17.9471 3.93521C18.88 5.15819 19.5181 6.57988 19.812 8.0897C20.1058 9.59952 20.0474 11.1568 19.6413 12.6403C19.2351 14.1239 18.4923 15.4938 17.4704 16.6434C16.4485 17.7931 15.1753 18.6915 13.7496 19.2688C12.3239 19.8462 10.7842 20.0869 9.25039 19.9722C7.71653 19.8575 6.2298 19.3905 4.90584 18.6075L0.822091 19.9675C0.712069 20.004 0.594065 20.0092 0.481268 19.9825C0.368471 19.9558 0.265325 19.8982 0.183359 19.8162C0.101394 19.7343 0.0438375 19.6311 0.017124 19.5183C-0.00958942 19.4055 -0.00440755 19.2875 0.0320905 19.1775L1.39334 15.095C0.494161 13.5764 0.0128824 11.8469 -0.0016156 10.0821C-0.0161136 8.31738 0.436685 6.58021 1.31079 5.04706C2.1849 3.51391 3.44919 2.23939 4.97524 1.35295C6.5013 0.466514 8.23476 -0.000272284 9.99959 1.19156e-07ZM6.51709 5.005C6.38991 5.00928 6.26519 5.04124 6.15164 5.09867C6.03808 5.1561 5.93842 5.2376 5.85959 5.3375C5.63459 5.60125 4.99959 6.24375 4.99959 7.54625C4.99959 8.85125 5.88084 10.1137 6.00459 10.2913C6.12709 10.4637 7.73959 13.1412 10.2083 14.2912C10.6667 14.5037 11.1333 14.6896 11.6083 14.8487C12.1983 15.0487 12.7358 15.0225 13.1608 14.955C13.6346 14.88 14.6158 14.3138 14.8221 13.6925C15.0258 13.0763 15.0258 12.545 14.9633 12.4337C14.9021 12.3237 14.7383 12.2562 14.4908 12.1212C14.2458 11.99 13.0346 11.3488 12.8096 11.2625C12.5846 11.1713 12.4196 11.13 12.2558 11.3937C12.0908 11.66 11.6221 12.2575 11.4771 12.4337C11.3358 12.6075 11.1896 12.6325 10.9458 12.5C10.6983 12.3687 9.90709 12.0875 8.96584 11.1825C8.23459 10.4812 7.74084 9.61 7.59834 9.34625C7.45334 9.08 7.58209 8.93875 7.70459 8.805C7.81709 8.6875 7.95209 8.4975 8.07459 8.34125C8.19584 8.18875 8.23959 8.07875 8.32209 7.9C8.40209 7.72375 8.36084 7.5675 8.29959 7.43625C8.23834 7.305 7.74584 5.99625 7.54084 5.465C7.34084 4.94875 7.13709 5.02125 6.98709 5.01125C6.84459 5.005 6.68084 5.005 6.51709 5.005Z" fill="#65A046"/>
</svg>
